<svg width="35" height="35" viewBox="0 0 35 35" fill="none" xmlns="http://www.w3.org/2000/svg">
<path d="M6.25308 29.6888C6.36214 30.5506 6.78156 31.3433 7.43284 31.9182C8.08411 32.4932 8.9226 32.8111 9.79136 32.8125H25.2132C26.082 32.8111 26.9205 32.4932 27.5718 31.9182C28.223 31.3433 28.6425 30.5506 28.7515 29.6888L30.6109 14.8509C30.6735 14.3491 30.6288 13.8397 30.4795 13.3566C30.3303 12.8734 30.08 12.4274 29.7453 12.0484C29.4106 11.6693 28.9991 11.3657 28.5381 11.1578C28.0772 10.9499 27.5772 10.8423 27.0715 10.8424H24.7757V9.46313C24.7292 7.56498 23.9424 5.76023 22.5835 4.4342C21.2245 3.10816 19.401 2.36591 17.5023 2.36591C15.6036 2.36591 13.7801 3.10816 12.4211 4.4342C11.0622 5.76023 10.2754 7.56498 10.2289 9.46313V10.8424H7.93746C7.43175 10.8423 6.93183 10.9499 6.47084 11.1578C6.00986 11.3657 5.59836 11.6693 5.26365 12.0484C4.92894 12.4274 4.67867 12.8734 4.52944 13.3566C4.38021 13.8397 4.33543 14.3491 4.39808 14.8509L6.25308 29.6888ZM12.412 9.46313C12.4508 8.14008 13.0037 6.88422 13.9532 5.9621C14.9028 5.03999 16.1743 4.52419 17.4979 4.52419C18.8215 4.52419 20.0931 5.03999 21.0426 5.9621C21.9922 6.88422 22.5451 8.14008 22.5839 9.46313V10.8424H12.412V9.46313ZM6.90386 13.4958C7.03242 13.3483 7.19134 13.2303 7.36973 13.1498C7.54812 13.0694 7.74178 13.0285 7.93746 13.0299H10.2245V15.6406C10.2245 15.9307 10.3397 16.2089 10.5448 16.414C10.75 16.6191 11.0282 16.7344 11.3182 16.7344C11.6083 16.7344 11.8865 16.6191 12.0916 16.414C12.2968 16.2089 12.412 15.9307 12.412 15.6406V13.0299H22.5839V15.6406C22.5839 15.9307 22.6991 16.2089 22.9042 16.414C23.1093 16.6191 23.3875 16.7344 23.6776 16.7344C23.9677 16.7344 24.2459 16.6191 24.451 16.414C24.6561 16.2089 24.7714 15.9307 24.7714 15.6406V13.0299H27.0584C27.2548 13.0285 27.4491 13.0691 27.6286 13.1489C27.808 13.2287 27.9683 13.3458 28.0989 13.4925C28.2294 13.6392 28.3272 13.8121 28.3856 13.9995C28.444 14.187 28.4617 14.3848 28.4376 14.5797L26.5782 29.4219C26.535 29.7545 26.3721 30.06 26.1202 30.2814C25.8682 30.5027 25.5443 30.6249 25.2089 30.625H9.79136C9.45595 30.6249 9.13204 30.5027 8.88007 30.2814C8.6281 30.06 8.46528 29.7545 8.42199 29.4219L6.56808 14.5797C6.54304 14.3855 6.56007 14.1882 6.61801 14.0012C6.67594 13.8142 6.77343 13.6418 6.90386 13.4958Z" fill="black"/>
</svg>
