<svg width="31" height="31" viewBox="0 0 31 31" fill="none" xmlns="http://www.w3.org/2000/svg">
<g clip-path="url(#clip0_17_424)">
<path d="M26.4602 20.0398C24.772 18.3516 22.7625 17.1019 20.5701 16.3454C22.9183 14.7281 24.4609 12.0215 24.4609 8.96094C24.4609 4.01989 20.441 0 15.5 0C10.559 0 6.53906 4.01989 6.53906 8.96094C6.53906 12.0215 8.08174 14.7281 10.4299 16.3454C8.23752 17.1019 6.22809 18.3516 4.53987 20.0398C1.6123 22.9674 0 26.8598 0 31H2.42188C2.42188 23.7887 8.28869 17.9219 15.5 17.9219C22.7113 17.9219 28.5781 23.7887 28.5781 31H31C31 26.8598 29.3877 22.9674 26.4602 20.0398ZM15.5 15.5C11.8944 15.5 8.96094 12.5666 8.96094 8.96094C8.96094 5.35525 11.8944 2.42188 15.5 2.42188C19.1056 2.42188 22.0391 5.35525 22.0391 8.96094C22.0391 12.5666 19.1056 15.5 15.5 15.5Z" fill="black"/>
</g>
<defs>
<clipPath id="clip0_17_424">
<rect width="31" height="31" fill="white"/>
</clipPath>
</defs>
</svg>
