<svg width="20" height="20" viewBox="0 0 20 20" fill="none" xmlns="http://www.w3.org/2000/svg">
<path d="M10 0C4.5 0 0 4.5 0 10C0 14.125 2.5 17.625 6 19.125C6 18.375 5.99999 17.625 6.12499 16.875C6.37499 16 7.37499 11.375 7.37499 11.375C7.37499 11.375 7.00001 10.75 7.00001 9.75C7.00001 8.25 7.87501 7.125 8.87501 7.125C9.75001 7.125 10.25 7.75 10.25 8.625C10.25 9.5 9.625 10.875 9.375 12.125C9.125 13.125 9.875 14 11 14C12.875 14 14.125 11.625 14.125 8.625C14.125 6.375 12.625 4.75 10 4.75C7 4.75 5.12501 7 5.12501 9.5C5.12501 10.375 5.37501 11 5.75001 11.5C5.87501 11.75 6 11.75 5.875 12C5.875 12.125 5.75 12.625 5.625 12.75C5.5 13 5.37501 13.125 5.12501 13C3.75001 12.375 3.125 10.875 3.125 9.125C3.125 6.25 5.5 2.875 10.25 2.875C14.125 2.875 16.625 5.625 16.625 8.625C16.625 12.5 14.5 15.5 11.25 15.5C10.125 15.5 9.125 14.875 8.75 14.25C8.75 14.25 8.12499 16.5 7.99999 17C7.74999 17.75 7.37501 18.5 7.00001 19.125C7.87501 19.375 8.87499 19.5 9.87499 19.5C15.375 19.5 19.875 15 19.875 9.5C20 4.5 15.5 0 10 0Z" fill="white"/>
</svg>
